{"title":"[JRR] Sword Art Online II - 18 [Eng Subbed] [720p] [10bit] [Anim","uid":11410904,"size":127368749,"categoryP":"video","categoryS":"hd___tv_shows","magnet":"?xt=urn:btih:ef70480a5ecfe2609653b81c26886ac9e735637e&amp;dn=%5BJRR%5D+Sword+Art+Online+II+-+18+%5BEng+Subbed%5D+%5B720p%5D+%5B10bit%5D+%5BAnim&amp;tr=udp%3A%2F%2Ftracker.openbittorrent.com%3A80&amp;tr=udp%3A%2F%2Fopen.demonii.com%3A1337&amp;tr=udp%3A%2F%2Ftracker.coppersurfer.tk%3A6969&amp;tr=udp%3A%2F%2Fexodus.desync.com%3A6969","seeders":1,"leechers":0,"uploader":"JRRtv","files":1,"time":1415532320,"description":"[b]General[/b] \nFormat : Matroska \nFormat version : Version 2 \nFile size : 121 MiB \nDuration : 23mn 40s \nOverall bit rate mode : Variable \nOverall bit rate : 717 Kbps \n\n[b]Video[/b] \nFormat : AVC \nFormat/Info : Advanced Video Codec \nFormat profile : High &lt;a class=&quot;__cf_email__&quot; href=&quot;/cdn-cgi/l/email-protection&quot; data-cfemail=&quot;8bbabbcbc7bfa5ba&quot;&gt;[email&amp;#160;protected]&lt;/a&gt;&lt;script cf-hash='f9e31' type=&quot;text/javascript&quot;&gt;\n/* &lt;![CDATA[ */!function(){try{var t=&quot;currentScript&quot;in document?document.currentScript:function(){for(var t=document.getElementsByTagName(&quot;script&quot;),e=t.length;e--;)if(t[e].getAttribute(&quot;cf-hash&quot;))return t[e]}();if(t&amp;&amp;t.previousSibling){var e,r,n,i,c=t.previousSibling,a=c.getAttribute(&quot;data-cfemail&quot;);if(a){for(e=&quot;&quot;,r=parseInt(a.substr(0,2),16),n=2;a.length-n;n+=2)i=parseInt(a.substr(n,2),16)^r,e+=String.fromCharCode(i);e=document.createTextNode(e),c.parentNode.replaceChild(e,c)}}}catch(u){}}();/* ]]&gt; */&lt;/script&gt; \nDuration : 23mn 40s \nBit rate mode : Variable \nBit rate : 630 Kbps \nWidth : 1 280 pixels \nHeight : 720 pixels \nDisplay aspect ratio : 16:9 \nFrame rate mode : Constant \nFrame rate : 23.976 fps \nBit depth : 10 bits \nScan type : Progressive \nBits/(Pixel*Frame) : 0.028 \nStream size : 107 MiB (88%) \n\n[b]Audio[/b] \nFormat : Vorbis \nDuration : 23mn 40s \nBit rate mode : Variable \nChannel(s) : 2 channels \nSampling rate : 44.1 KHz \nStream size : 12.5 MiB (10%) \nLanguage : Japanese \nDefault : Yes \nForced : No \n\n[b]Text[/b] \nFormat : ASS \nLanguage : English \nSource : [color=green]HorribleSubs[/color]\n &lt;a href=&quot;\nhttp://i.imgur.com/r2UaQ9p.png&quot; rel=&quot;nofollow&quot; target=&quot;_NEW&quot;&gt;\nhttp://i.imgur.com/r2UaQ9p.png&lt;/a&gt; &lt;a href=&quot;\nhttp://i.imgur.com/fmqopEf.png&quot; rel=&quot;nofollow&quot; target=&quot;_NEW&quot;&gt;\nhttp://i.imgur.com/fmqopEf.png&lt;/a&gt; &lt;a href=&quot;\nhttp://i.imgur.com/Ud0xttZ.png&quot; rel=&quot;nofollow&quot; target=&quot;_NEW&quot;&gt;\nhttp://i.imgur.com/Ud0xttZ.png&lt;/a&gt;","torrent":{"xt":"urn:btih:ef70480a5ecfe2609653b81c26886ac9e735637e","amp;dn":"%5BJRR%5D+Sword+Art+Online+II+-+18+%5BEng+Subbed%5D+%5B720p%5D+%5B10bit%5D+%5BAnim","amp;tr":["udp%3A%2F%2Ftracker.openbittorrent.com%3A80","udp%3A%2F%2Fopen.demonii.com%3A1337","udp%3A%2F%2Ftracker.coppersurfer.tk%3A6969","udp%3A%2F%2Fexodus.desync.com%3A6969"],"infoHash":"ef70480a5ecfe2609653b81c26886ac9e735637e","infoHashBuffer":{"type":"Buffer","data":[239,112,72,10,94,207,226,96,150,83,184,28,38,136,106,201,231,53,99,126]},"announce":[],"urlList":[]}}